<svg xmlns="http://www.w3.org/2000/svg" viewBox="0 0 400 300">
<rect width="400" height="300" fill="#1a0a2d"/>
<circle cx="200" cy="120" r="50" fill="rgba(255,255,255,0.05)"/>
<g transform="translate(170, 80) scale(5)"><path fill="#E91E63" d="M9 2a1 1 0 0 0-1 1v2H7a1 1 0 0 0-1 1v2a1 1 0 0 0 1 1h1v12a1 1 0 0 0 1 1h4a1 1 0 0 0 1-1V9h1a1 1 0 0 0 1-1V6a1 1 0 0 0-1-1h-1V3a1 1 0 0 0-1-1H9z"/><circle cx="18" cy="8" r="3" fill="#FF69B4"/></g>
<text x="200" y="230" text-anchor="middle" fill="#fff" font-size="22" font-family="Arial" font-weight="bold">Makeup Party</text>
<text x="200" y="260" text-anchor="middle" fill="rgba(255,255,255,0.5)" font-size="14" font-family="Arial">Luthf Azizah Almasah</text>
</svg>